Coordinates
version=1
nRows=14
nColumns=24
inDegrees=yes

Units are S.I. units (second, meters, Newtons, ...)
Angles are in degrees.

endheader
time	pelvis_tilt	pelvis_list	pelvis_rotation	pelvis_tx	pelvis_ty	pelvis_tz	hip_flexion_r	hip_adduction_r	hip_rotation_r	knee_angle_r	ankle_angle_r	subtalar_angle_r	mtp_angle_r	hip_flexion_l	hip_adduction_l	hip_rotation_l	knee_angle_l	ankle_angle_l	subtalar_angle_l	mtp_angle_l	lumbar_extension	lumbar_bending	lumbar_rotation
      3.48500000	     -6.91709947	      7.87085809	    358.45241714	      0.61698369	      1.37709221	     -1.03070571	      1.18209867	     -5.73466362	      3.14431265	    -31.35039613	     -0.52278860	     -3.66764887	     21.61293745	     19.82011688	      9.18638800	     -9.64279990	     -4.14603341	    -10.58846852	      6.29539995	     35.23766183	      8.11552486	     -7.44692349	    113.52514330
      3.49000000	     -6.80520046	      7.91721428	    358.45448492	      0.62178736	      1.37772246	     -1.03130191	      1.77574114	     -5.88136729	      3.12086730	    -32.88926500	     -1.56905719	     -3.46440880	     22.71181788	     19.60870770	      9.27763947	     -9.57282229	     -4.54952836	    -10.26680761	      6.25522367	     34.59211654	      7.97573792	     -7.55252520	    113.50875788
      3.49500000	     -6.76080132	      7.98494960	    358.46374530	      0.62658154	      1.37825367	     -1.03190532	      2.47400225	     -6.04828769	      3.12736044	    -34.45168045	     -2.53903803	     -3.17712227	     23.61834957	     19.44028429	      9.39732554	     -9.43938176	     -4.88406629	     -9.98574383	      6.14503434	     34.01813460	      7.92092117	     -7.68694917	    113.46319059
      3.50000000	     -6.67574467	      8.04488742	    358.47477824	      0.63129549	      1.37880067	     -1.03253037	      3.14467503	     -6.20698557	      3.14111521	    -35.99346910	     -3.47994970	     -2.92710817	     24.51067974	     19.20613279	      9.52255880	     -9.28409183	     -5.17160361	     -9.70997851	      5.99314349	     33.39548665	      7.80825505	     -7.80894568	    113.39669594
      3.50500000	     -6.62126442	      8.11165009	    358.48615747	      0.63596362	      1.37928575	     -1.03316436	      3.86804321	     -6.36764592	      3.18258291	    -37.52761654	     -4.31979694	     -2.64637844	     25.24241318	     18.97857370	      9.66139438	     -9.09999243	     -5.39564646	     -9.47063622	      5.78517197	     32.83435827	      7.73363950	     -7.93510633	    113.32944127
      3.51000000	     -6.55708198	      8.19414397	    358.51128696	      0.64059180	      1.37974708	     -1.03379953	      4.58558075	     -6.54196452	      3.22641706	    -39.03300295	     -5.02334628	     -2.34144794	     25.82245638	     18.70610102	      9.83018618	     -8.85373919	     -5.54273359	     -9.28400023	      5.49776962	     32.33423234	      7.64151214	     -8.09468599	    113.19147327
      3.51500000	     -6.49587801	      8.23297192	    358.52014842	      0.64513340	      1.38021622	     -1.03446099	      5.31352883	     -6.65712143	      3.32278488	    -40.48746296	     -5.65861192	     -2.04922359	     26.37837442	     18.41458348	      9.95684436	     -8.57211015	     -5.64100830	     -9.10503891	      5.16021671	     31.80904571	      7.54822365	     -8.17705997	    113.09324646
      3.52000000	     -6.45629361	      8.30545908	    358.53228194	      0.64967335	      1.38063070	     -1.03509101	      6.06757959	     -6.80041066	      3.43390038	    -41.90990136	     -6.10162610	     -1.72612681	     26.77966051	     18.10881903	     10.12287255	     -8.24992916	     -5.65502275	     -8.99082875	      4.76224398	     31.37598981	      7.48660823	     -8.31030358	    112.95300193
      3.52500000	     -6.41078128	      8.34900288	    358.54416761	      0.65414811	      1.38105115	     -1.03574067	      6.81131689	     -6.90346536	      3.56093568	    -43.27238754	     -6.42132170	     -1.40846166	     27.13794107	     17.77690407	     10.26556242	     -7.87562114	     -5.62651890	     -8.90116792	      4.28085827	     30.93794900	      7.41438409	     -8.40287069	    112.81463283
      3.53000000	     -6.34966974	      8.37975043	    358.55058868	      0.65857206	      1.38148698	     -1.03638134	      7.53297222	     -6.98341626	      3.70199956	    -44.57262402	     -6.58854020	     -1.09108732	     27.43986522	     17.40534203	     10.39778908	     -7.46012443	     -5.54791491	     -8.84353385	      3.74114361	     30.52572384	      7.32078107	     -8.47648619	    112.65848658
      3.53500000	     -6.31766461	      8.40433141	    358.55402018	      0.66298046	      1.38190805	     -1.03701311	      8.28178856	     -7.04573918	      3.86016009	    -45.81444531	     -6.61462214	     -0.77698140	     27.68394101	     17.04621101	     10.52219848	     -7.00912018	     -5.42919519	     -8.82330497	      3.14249583	     30.14191407	      7.26732380	     -8.53983762	    112.49925259
      3.54000000	     -6.27183093	      8.41550689	    358.55161485	      0.66733862	      1.38233275	     -1.03764225	      9.01200593	     -7.08625582	      4.02242446	    -46.99621585	     -6.50322911	     -0.47077196	     27.88434413	     16.66105120	     10.63355777	     -6.52070273	     -5.28460614	     -8.82180946	      2.48087190	     29.77742873	      7.19050806	     -8.57670048	    112.33176764
      3.54500000	     -6.23839895	      8.40893947	    358.54454718	      0.67167606	      1.38276450	     -1.03825282	      9.74694935	     -7.09539745	      4.19548485	    -48.10864863	     -6.27100946	     -0.19709299	     28.04266204	     16.28353547	     10.72197519	     -6.01317252	     -5.12889506	     -8.83349023	      1.78574727	     29.42690277	      7.13314856	     -8.59133377	    112.17174111
      3.55000000	     -6.19301705	      8.38325573	    358.53310431	      0.67599306	      1.38323012	     -1.03884253	     10.45741658	     -7.07604137	      4.36469025	    -49.14646589	     -5.93914706	      0.05000611	     28.17294444	     15.89144708	     10.78631367	     -5.49605458	     -4.97146530	     -8.85548552	      1.08525319	     29.08942687	      7.06293055	     -8.58282578	    112.00380935
